<svg width="48" height="57" viewBox="0 0 48 57" fill="none" xmlns="http://www.w3.org/2000/svg">
<path fill-rule="evenodd" clip-rule="evenodd" d="M39.1419 23.8787C38.7056 23.8816 38.3563 24.2384 38.3345 24.6741C38.0293 30.7718 33.9119 35.2991 29.7179 37.1617C21.0008 41.0338 11.3464 35.6708 9.44309 27.191C7.49336 18.5052 13.221 9.85638 22.8842 9.16102C23.3106 9.13033 23.6531 8.78319 23.6545 8.35573L23.6775 1.25821C23.6789 0.835122 23.3479 0.483901 22.9248 0.484385C17.5004 0.490601 10.9255 3.26294 7.51725 6.98571C6.89757 7.66265 6.48446 7.80581 5.90773 8.57205C1.51001 14.4157 -0.760772 20.2914 0.753991 28.3062C1.49706 32.2377 3.59946 36.6674 6.0843 39.1748L10.8011 44.0477C12.4192 45.6747 21.2221 54.6886 23.3314 56.4868C23.5521 56.6749 23.8453 56.673 24.0659 56.4848C26.372 54.5173 36.5714 44.005 37.82 42.7647C42.1834 38.4304 46.5726 33.8785 47.0051 24.6403C47.026 24.1952 46.6648 23.8285 46.2192 23.8315L39.1419 23.8787Z" fill="url(#paint0_linear_914_22321)"/>
<path d="M18.0085 18.6328H15.6349C15.4601 18.6328 15.3184 18.7745 15.3184 18.9493V28.1276C15.3184 28.3024 15.4601 28.4441 15.6349 28.4441H18.0085C18.1833 28.4441 18.325 28.3024 18.325 28.1276V18.9493C18.325 18.7745 18.1833 18.6328 18.0085 18.6328Z" fill="white"/>
<path d="M26.4611 23.3274L30.9397 18.8488C31.0633 18.7252 31.2637 18.7252 31.3873 18.8488L32.6167 20.0782C32.7403 20.2018 32.7403 20.4022 32.6167 20.5258L29.8151 23.3274C29.6915 23.451 29.6915 23.6514 29.8151 23.775L32.6167 26.5766C32.7403 26.7002 32.7403 26.9006 32.6167 27.0242L31.3873 28.2536C31.2637 28.3772 31.0633 28.3772 30.9397 28.2536L26.4611 23.775C26.3375 23.6514 26.3375 23.451 26.4611 23.3274Z" fill="white"/>
<path fill-rule="evenodd" clip-rule="evenodd" d="M29.3166 8.28747C29.3149 8.72273 29.665 9.07767 30.1003 9.08185L37.5397 9.15336C37.9725 9.15752 38.3216 9.50866 38.3233 9.94148L38.352 17.2992C38.3537 17.7344 38.7065 18.0865 39.1417 18.0873L46.2484 18.1007C46.6855 18.1015 47.0405 17.7477 47.0411 17.3105L47.0628 1.29949C47.0634 0.863432 46.7111 0.509092 46.275 0.507196L30.1397 0.437035C29.7026 0.435135 29.3468 0.787994 29.3451 1.22508L29.3166 8.28747Z" fill="url(#paint1_linear_914_22321)"/>
<defs>
<linearGradient id="paint0_linear_914_22321" x1="0.285157" y1="9.33046" x2="28.5264" y2="56.8616" gradientUnits="userSpaceOnUse">
<stop offset="0.0216666" stop-color="#78AAC5"/>
<stop offset="0.318199" stop-color="#F3808E"/>
<stop offset="0.693895" stop-color="#FCB236"/>
<stop offset="1" stop-color="#F7EEA6"/>
</linearGradient>
<linearGradient id="paint1_linear_914_22321" x1="29.3135" y1="3.21048" x2="37.3023" y2="19.4743" gradientUnits="userSpaceOnUse">
<stop offset="0.0216666" stop-color="#78AAC5"/>
<stop offset="0.318199" stop-color="#F3808E"/>
<stop offset="0.693895" stop-color="#FCB236"/>
<stop offset="1" stop-color="#F7EEA6"/>
</linearGradient>
</defs>
</svg>
