<svg width="245" height="66" viewBox="0 0 245 66" fill="none" xmlns="http://www.w3.org/2000/svg">
<path d="M67.1527 39.8643V18.9746H69.9007V37.3407H79.0697V39.8643H67.1527ZM88.8039 40.2007C87.3458 40.2007 86.0466 39.8549 84.9063 39.1633C83.7661 38.4716 82.8688 37.5276 82.2145 36.3312C81.5603 35.1162 81.2331 33.7609 81.2331 32.2655C81.2331 30.7513 81.5509 29.4054 82.1865 28.2277C82.8407 27.0501 83.7193 26.1247 84.8222 25.4518C85.9438 24.7601 87.1963 24.4143 88.5796 24.4143C89.7012 24.4143 90.6919 24.6199 91.5518 25.0312C92.4304 25.4237 93.1688 25.9658 93.7669 26.6575C94.3838 27.3304 94.8511 28.1062 95.1689 28.9848C95.5054 29.8447 95.6736 30.742 95.6736 31.6766C95.6736 31.8823 95.6549 32.1159 95.6176 32.3776C95.5989 32.6206 95.5708 32.8543 95.5334 33.0786H83.1398V30.8354H94.0193L92.7855 31.8449C92.9538 30.8728 92.8603 30.0036 92.5051 29.2372C92.15 28.4707 91.6266 27.8632 90.9349 27.4146C90.2433 26.9659 89.4581 26.7416 88.5796 26.7416C87.701 26.7416 86.8972 26.9659 86.1681 27.4146C85.4391 27.8632 84.869 28.5081 84.4577 29.3493C84.0651 30.1718 83.9063 31.1532 83.981 32.2935C83.9063 33.3964 84.0745 34.3684 84.4857 35.2096C84.9157 36.0321 85.5139 36.6771 86.2803 37.1444C87.0654 37.593 87.916 37.8173 88.8319 37.8173C89.8414 37.8173 90.6919 37.5837 91.3835 37.1164C92.0752 36.649 92.636 36.0508 93.0659 35.3218L95.253 36.4434C94.954 37.135 94.4866 37.7706 93.8511 38.3501C93.2342 38.9109 92.4958 39.3595 91.6359 39.696C90.7947 40.0325 89.8507 40.2007 88.8039 40.2007ZM103.312 40.2007C102.322 40.2007 101.443 40.0232 100.677 39.668C99.9288 39.2941 99.34 38.7894 98.9101 38.1538C98.4801 37.4996 98.2651 36.7518 98.2651 35.9106C98.2651 35.1068 98.4334 34.3871 98.7699 33.7516C99.125 33.0973 99.6671 32.5459 100.396 32.0972C101.144 31.6486 102.079 31.3308 103.2 31.1439L108.808 30.2186V32.4057L103.789 33.2469C102.817 33.4151 102.107 33.7235 101.658 34.1722C101.228 34.6208 101.013 35.1723 101.013 35.8265C101.013 36.4434 101.256 36.9575 101.742 37.3687C102.247 37.78 102.873 37.9856 103.621 37.9856C104.574 37.9856 105.397 37.7893 106.088 37.3968C106.799 36.9855 107.35 36.4341 107.743 35.7424C108.154 35.0508 108.359 34.2843 108.359 33.4431V29.6017C108.359 28.7792 108.051 28.1156 107.434 27.6108C106.836 27.0874 106.042 26.8257 105.051 26.8257C104.191 26.8257 103.424 27.0501 102.752 27.4987C102.097 27.9286 101.611 28.5081 101.293 29.2372L99.0222 28.0595C99.3026 27.3678 99.7512 26.751 100.368 26.2089C100.985 25.6481 101.705 25.2088 102.527 24.891C103.35 24.5732 104.21 24.4143 105.107 24.4143C106.266 24.4143 107.285 24.6386 108.163 25.0873C109.042 25.5172 109.724 26.1247 110.21 26.9099C110.715 27.6763 110.967 28.5735 110.967 29.6017V39.8643H108.416V37.0042L108.892 37.1724C108.574 37.7706 108.145 38.294 107.602 38.7427C107.06 39.1913 106.425 39.5465 105.696 39.8082C104.967 40.0699 104.172 40.2007 103.312 40.2007ZM121.88 40.2007C120.459 40.2007 119.179 39.8549 118.039 39.1633C116.917 38.4716 116.029 37.5276 115.375 36.3312C114.721 35.1349 114.394 33.7983 114.394 32.3215C114.394 30.8074 114.721 29.4615 115.375 28.2838C116.029 27.0874 116.917 26.1434 118.039 25.4518C119.179 24.7601 120.459 24.4143 121.88 24.4143C123.133 24.4143 124.245 24.6854 125.217 25.2275C126.189 25.7509 126.955 26.4612 127.516 27.3585L127.096 28.0034V18.6381H129.731V39.8643H127.18V36.6397L127.516 37.0883C126.993 38.0791 126.226 38.8455 125.217 39.3876C124.226 39.9297 123.114 40.2007 121.88 40.2007ZM122.104 37.6772C123.058 37.6772 123.908 37.4435 124.656 36.9762C125.404 36.5088 125.993 35.8733 126.423 35.0694C126.871 34.2469 127.096 33.331 127.096 32.3215C127.096 31.2934 126.871 30.3774 126.423 29.5736C125.993 28.7511 125.404 28.1062 124.656 27.6389C123.908 27.1716 123.058 26.9379 122.104 26.9379C121.17 26.9379 120.319 27.1809 119.553 27.6669C118.805 28.1343 118.216 28.7698 117.786 29.5736C117.356 30.3588 117.141 31.2747 117.141 32.3215C117.141 33.331 117.356 34.2469 117.786 35.0694C118.216 35.8733 118.805 36.5088 119.553 36.9762C120.301 37.4435 121.151 37.6772 122.104 37.6772ZM139.179 40.2007C137.665 40.2007 136.347 39.8269 135.226 39.0791C134.104 38.3314 133.31 37.322 132.842 36.0508L134.917 35.0414C135.347 35.9387 135.936 36.649 136.684 37.1724C137.431 37.6958 138.263 37.9575 139.179 37.9575C140.002 37.9575 140.684 37.7613 141.226 37.3687C141.768 36.9762 142.039 36.4621 142.039 35.8265C142.039 35.3779 141.908 35.0227 141.647 34.761C141.404 34.4806 141.105 34.2656 140.749 34.1161C140.394 33.9479 140.067 33.8263 139.768 33.7516L137.497 33.1067C136.132 32.7141 135.132 32.1533 134.497 31.4243C133.88 30.6952 133.571 29.8447 133.571 28.8726C133.571 27.9754 133.796 27.1996 134.244 26.5453C134.712 25.8724 135.338 25.349 136.123 24.9751C136.927 24.6012 137.824 24.4143 138.815 24.4143C140.142 24.4143 141.329 24.7508 142.376 25.4237C143.441 26.0967 144.198 27.0407 144.647 28.2558L142.516 29.2372C142.179 28.452 141.675 27.8352 141.002 27.3865C140.329 26.9192 139.572 26.6855 138.731 26.6855C137.964 26.6855 137.357 26.8818 136.908 27.2744C136.459 27.6482 136.235 28.1249 136.235 28.7044C136.235 29.1343 136.347 29.4895 136.572 29.7699C136.796 30.0316 137.067 30.2372 137.385 30.3868C137.702 30.5176 138.011 30.6298 138.31 30.7233L140.777 31.4523C142.011 31.8075 142.965 32.3589 143.638 33.1067C144.329 33.8544 144.675 34.7517 144.675 35.7985C144.675 36.6397 144.441 37.3968 143.974 38.0697C143.507 38.7427 142.862 39.2661 142.039 39.6399C141.217 40.0138 140.263 40.2007 139.179 40.2007ZM148.397 39.8643V18.9746H150.921L158.744 30.1064H157.454L165.221 18.9746H167.745V39.8643H164.969V22.4515L165.95 22.76L158.183 33.6955H157.959L150.276 22.76L151.145 22.4515V39.8643H148.397ZM176.506 40.2007C175.515 40.2007 174.637 40.0232 173.87 39.668C173.123 39.2941 172.534 38.7894 172.104 38.1538C171.674 37.4996 171.459 36.7518 171.459 35.9106C171.459 35.1068 171.627 34.3871 171.964 33.7516C172.319 33.0973 172.861 32.5459 173.59 32.0972C174.338 31.6486 175.272 31.3308 176.394 31.1439L182.002 30.2186V32.4057L176.983 33.2469C176.011 33.4151 175.3 33.7235 174.852 34.1722C174.422 34.6208 174.207 35.1723 174.207 35.8265C174.207 36.4434 174.45 36.9575 174.936 37.3687C175.441 37.78 176.067 37.9856 176.815 37.9856C177.768 37.9856 178.59 37.7893 179.282 37.3968C179.992 36.9855 180.544 36.4341 180.936 35.7424C181.348 35.0508 181.553 34.2843 181.553 33.4431V29.6017C181.553 28.7792 181.245 28.1156 180.628 27.6108C180.03 27.0874 179.235 26.8257 178.245 26.8257C177.385 26.8257 176.618 27.0501 175.945 27.4987C175.291 27.9286 174.805 28.5081 174.487 29.2372L172.216 28.0595C172.496 27.3678 172.945 26.751 173.562 26.2089C174.179 25.6481 174.899 25.2088 175.721 24.891C176.544 24.5732 177.403 24.4143 178.301 24.4143C179.46 24.4143 180.478 24.6386 181.357 25.0873C182.236 25.5172 182.918 26.1247 183.404 26.9099C183.909 27.6763 184.161 28.5735 184.161 29.6017V39.8643H181.609V37.0042L182.086 37.1724C181.768 37.7706 181.338 38.294 180.796 38.7427C180.254 39.1913 179.619 39.5465 178.89 39.8082C178.16 40.0699 177.366 40.2007 176.506 40.2007ZM194.071 40.0325C192.594 40.0325 191.454 39.6119 190.65 38.7707C189.865 37.9295 189.473 36.7425 189.473 35.2096V27.2463H186.725V24.7508H187.285C187.958 24.7508 188.491 24.5452 188.884 24.1339C189.276 23.7227 189.473 23.1806 189.473 22.5076V21.2738H192.08V24.7508H195.473V27.2463H192.08V35.1255C192.08 35.6302 192.155 36.0695 192.305 36.4434C192.473 36.8173 192.744 37.1164 193.118 37.3407C193.492 37.5463 193.987 37.6491 194.604 37.6491C194.735 37.6491 194.894 37.6398 195.081 37.6211C195.286 37.6024 195.473 37.5837 195.641 37.565V39.8643C195.398 39.9203 195.127 39.9577 194.828 39.9764C194.529 40.0138 194.277 40.0325 194.071 40.0325ZM205.591 40.2007C204.133 40.2007 202.834 39.8549 201.693 39.1633C200.553 38.4716 199.656 37.5276 199.002 36.3312C198.347 35.1162 198.02 33.7609 198.02 32.2655C198.02 30.7513 198.338 29.4054 198.973 28.2277C199.628 27.0501 200.506 26.1247 201.609 25.4518C202.731 24.7601 203.983 24.4143 205.367 24.4143C206.488 24.4143 207.479 24.6199 208.339 25.0312C209.217 25.4237 209.956 25.9658 210.554 26.6575C211.171 27.3304 211.638 28.1062 211.956 28.9848C212.292 29.8447 212.461 30.742 212.461 31.6766C212.461 31.8823 212.442 32.1159 212.405 32.3776C212.386 32.6206 212.358 32.8543 212.32 33.0786H199.927V30.8354H210.806L209.573 31.8449C209.741 30.8728 209.647 30.0036 209.292 29.2372C208.937 28.4707 208.414 27.8632 207.722 27.4146C207.03 26.9659 206.245 26.7416 205.367 26.7416C204.488 26.7416 203.684 26.9659 202.955 27.4146C202.226 27.8632 201.656 28.5081 201.245 29.3493C200.852 30.1718 200.693 31.1532 200.768 32.2935C200.693 33.3964 200.862 34.3684 201.273 35.2096C201.703 36.0321 202.301 36.6771 203.067 37.1444C203.852 37.593 204.703 37.8173 205.619 37.8173C206.628 37.8173 207.479 37.5837 208.171 37.1164C208.862 36.649 209.423 36.0508 209.853 35.3218L212.04 36.4434C211.741 37.135 211.274 37.7706 210.638 38.3501C210.021 38.9109 209.283 39.3595 208.423 39.696C207.582 40.0325 206.638 40.2007 205.591 40.2007ZM218.997 39.8643L226.484 18.9746H229.736L237.223 39.8643H234.279L232.568 34.9573H223.652L221.941 39.8643H218.997ZM224.521 32.4337H231.699L227.717 20.9654H228.503L224.521 32.4337ZM239.547 39.8643V24.7508H242.154V39.8643H239.547ZM239.547 22.3394V18.9746H242.154V22.3394H239.547Z" fill="black"/>
<path fill-rule="evenodd" clip-rule="evenodd" d="M44.6807 27.5851C44.1799 27.5885 43.779 27.998 43.754 28.4982C43.4037 35.4977 38.6772 40.6947 33.8628 42.8328C23.8564 47.2776 12.774 41.1214 10.5892 31.3873C8.35105 21.4168 14.9259 11.4887 26.0184 10.6905C26.5078 10.6553 26.901 10.2568 26.9026 9.76609L26.929 1.61876C26.9306 1.1331 26.5507 0.729924 26.065 0.730481C19.8382 0.737616 12.2908 3.92002 8.37847 8.19343C7.66714 8.97049 7.19291 9.13483 6.53088 10.0144C1.48268 16.7224 -1.12397 23.4671 0.614841 32.6675C1.46782 37.1805 3.88119 42.2654 6.73357 45.1437L12.148 50.7373C14.0055 52.6049 24.1105 62.9522 26.5317 65.0163C26.785 65.2322 27.1216 65.2301 27.3748 65.0141C30.022 62.7555 41.7301 50.6884 43.1634 49.2645C48.1722 44.2892 53.2106 39.064 53.7071 28.4594C53.731 27.9484 53.3164 27.5275 52.8049 27.5309L44.6807 27.5851Z" fill="url(#paint0_linear_934_27480)"/>
<path d="M20.4218 21.5615H17.697C17.4964 21.5615 17.3337 21.7242 17.3337 21.9248V32.4607C17.3337 32.6614 17.4964 32.824 17.697 32.824H20.4218C20.6225 32.824 20.7851 32.6614 20.7851 32.4607V21.9248C20.7851 21.7242 20.6225 21.5615 20.4218 21.5615Z" fill="black"/>
<path d="M30.1241 26.9507L35.2651 21.8096C35.407 21.6678 35.637 21.6678 35.7789 21.8096L37.1902 23.2209C37.3321 23.3628 37.3321 23.5928 37.1902 23.7347L33.9742 26.9507C33.8323 27.0926 33.8323 27.3226 33.9742 27.4645L37.1902 30.6805C37.3321 30.8223 37.3321 31.0524 37.1902 31.1943L35.7789 32.6055C35.637 32.7474 35.407 32.7474 35.2651 32.6055L30.1241 27.4645C29.9822 27.3226 29.9822 27.0926 30.1241 26.9507Z" fill="black"/>
<path fill-rule="evenodd" clip-rule="evenodd" d="M33.4021 9.68549C33.4001 10.1851 33.802 10.5926 34.3016 10.5974L42.8414 10.6795C43.3382 10.6842 43.739 11.0873 43.7409 11.5841L43.7738 20.0301C43.7758 20.5297 44.1808 20.9339 44.6804 20.9348L52.8382 20.9502C53.34 20.9512 53.7475 20.545 53.7482 20.0432L53.7731 1.6639C53.7738 1.16334 53.3694 0.756588 52.8688 0.754411L34.3469 0.673873C33.8452 0.671691 33.4367 1.07674 33.4347 1.57847L33.4021 9.68549Z" fill="url(#paint1_linear_934_27480)"/>
<defs>
<linearGradient id="paint0_linear_934_27480" x1="0.0766608" y1="10.885" x2="32.4951" y2="65.4465" gradientUnits="userSpaceOnUse">
<stop offset="0.0216666" stop-color="#78AAC5"/>
<stop offset="0.318199" stop-color="#F3808E"/>
<stop offset="0.693895" stop-color="#FCB236"/>
<stop offset="1" stop-color="#F7EEA6"/>
</linearGradient>
<linearGradient id="paint1_linear_934_27480" x1="33.3984" y1="3.85754" x2="42.5689" y2="22.5269" gradientUnits="userSpaceOnUse">
<stop offset="0.0216666" stop-color="#78AAC5"/>
<stop offset="0.318199" stop-color="#F3808E"/>
<stop offset="0.693895" stop-color="#FCB236"/>
<stop offset="1" stop-color="#F7EEA6"/>
</linearGradient>
</defs>
</svg>
