<svg width="214" height="57" viewBox="0 0 214 57" fill="none" xmlns="http://www.w3.org/2000/svg">
<path d="M58.7176 34.314V16.116H61.1114V32.1156H69.099V34.314H58.7176ZM77.5789 34.6071C76.3087 34.6071 75.177 34.3058 74.1836 33.7033C73.1902 33.1008 72.4086 32.2784 71.8386 31.2362C71.2687 30.1777 70.9837 28.9971 70.9837 27.6943C70.9837 26.3752 71.2605 25.2028 71.8142 24.1768C72.3842 23.1509 73.1495 22.3448 74.1103 21.7586C75.0874 21.1561 76.1785 20.8548 77.3835 20.8548C78.3606 20.8548 79.2237 21.0339 79.9728 21.3922C80.7381 21.7342 81.3814 22.2064 81.9025 22.8089C82.4399 23.3952 82.847 24.071 83.1238 24.8364C83.4169 25.5855 83.5635 26.3671 83.5635 27.1813C83.5635 27.3605 83.5472 27.564 83.5146 27.792C83.4984 28.0037 83.4739 28.2073 83.4414 28.4027H72.6447V26.4485H82.1223L81.0475 27.3279C81.1941 26.4811 81.1127 25.7239 80.8033 25.0562C80.4939 24.3885 80.0379 23.8593 79.4354 23.4685C78.8328 23.0776 78.1489 22.8822 77.3835 22.8822C76.6181 22.8822 75.9179 23.0776 75.2828 23.4685C74.6477 23.8593 74.151 24.4211 73.7928 25.1539C73.4508 25.8704 73.3124 26.7254 73.3775 27.7187C73.3124 28.6795 73.4589 29.5263 73.8172 30.2591C74.1917 30.9756 74.7128 31.5375 75.3805 31.9446C76.0645 32.3354 76.8054 32.5308 77.6034 32.5308C78.4827 32.5308 79.2237 32.3273 79.8262 31.9201C80.4287 31.513 80.9173 30.9919 81.2918 30.3568L83.1971 31.3339C82.9365 31.9364 82.5294 32.4901 81.9758 32.9949C81.4384 33.4835 80.7951 33.8743 80.046 34.1674C79.3132 34.4605 78.4909 34.6071 77.5789 34.6071ZM90.2179 34.6071C89.3548 34.6071 88.5894 34.4524 87.9218 34.143C87.2704 33.8173 86.7574 33.3776 86.3829 32.8239C86.0083 32.254 85.8211 31.6026 85.8211 30.8698C85.8211 30.1695 85.9676 29.5426 86.2608 28.9889C86.5702 28.419 87.0424 27.9386 87.6775 27.5477C88.3289 27.1569 89.1431 26.8801 90.1202 26.7172L95.0056 25.9111V27.8164L90.6332 28.5492C89.7864 28.6958 89.1675 28.9645 88.7767 29.3553C88.4022 29.7462 88.2149 30.2265 88.2149 30.7965C88.2149 31.3339 88.4266 31.7817 88.85 32.14C89.2897 32.4982 89.8352 32.6774 90.4866 32.6774C91.3171 32.6774 92.0336 32.5064 92.6361 32.1644C93.255 31.8061 93.7354 31.3258 94.0773 30.7232C94.4356 30.1207 94.6147 29.453 94.6147 28.7202V25.3738C94.6147 24.6572 94.346 24.0791 93.8086 23.6394C93.2875 23.1835 92.5954 22.9555 91.7324 22.9555C90.9833 22.9555 90.3156 23.1509 89.7294 23.5417C89.1594 23.9163 88.736 24.4211 88.4592 25.0562L86.4806 24.0303C86.7249 23.4277 87.1157 22.8904 87.6531 22.4181C88.1905 21.9296 88.8174 21.5469 89.5339 21.27C90.2505 20.9932 90.9996 20.8548 91.7812 20.8548C92.7909 20.8548 93.6784 21.0502 94.4437 21.441C95.2091 21.8156 95.8035 22.3448 96.2269 23.0288C96.6666 23.6964 96.8864 24.4781 96.8864 25.3738V34.314H94.6636V31.8224L95.0788 31.969C94.802 32.4901 94.4274 32.9461 93.9552 33.3369C93.4829 33.7277 92.9293 34.0371 92.2942 34.2651C91.6591 34.4931 90.967 34.6071 90.2179 34.6071ZM106.393 34.6071C105.156 34.6071 104.04 34.3058 103.047 33.7033C102.07 33.1008 101.296 32.2784 100.726 31.2362C100.156 30.194 99.8713 29.0296 99.8713 27.7432C99.8713 26.4241 100.156 25.2516 100.726 24.2257C101.296 23.1835 102.07 22.3611 103.047 21.7586C104.04 21.1561 105.156 20.8548 106.393 20.8548C107.484 20.8548 108.453 21.0909 109.3 21.5632C110.147 22.0191 110.814 22.6379 111.303 23.4196L110.937 23.9814V15.8229H113.233V34.314H111.01V31.5049L111.303 31.8957C110.847 32.7588 110.179 33.4265 109.3 33.8987C108.437 34.371 107.468 34.6071 106.393 34.6071ZM106.589 32.4087C107.419 32.4087 108.16 32.2051 108.811 31.798C109.463 31.3909 109.976 30.8372 110.35 30.137C110.741 29.4205 110.937 28.6225 110.937 27.7432C110.937 26.8475 110.741 26.0496 110.35 25.3493C109.976 24.6328 109.463 24.071 108.811 23.6639C108.16 23.2568 107.419 23.0532 106.589 23.0532C105.774 23.0532 105.033 23.2649 104.366 23.6883C103.714 24.0954 103.201 24.6491 102.827 25.3493C102.452 26.0333 102.265 26.8312 102.265 27.7432C102.265 28.6225 102.452 29.4205 102.827 30.137C103.201 30.8372 103.714 31.3909 104.366 31.798C105.017 32.2051 105.758 32.4087 106.589 32.4087ZM121.463 34.6071C120.144 34.6071 118.996 34.2814 118.019 33.63C117.042 32.9786 116.35 32.0993 115.943 30.9919L117.75 30.1126C118.125 30.8942 118.638 31.513 119.289 31.969C119.941 32.425 120.665 32.6529 121.463 32.6529C122.18 32.6529 122.774 32.482 123.246 32.14C123.719 31.798 123.955 31.3502 123.955 30.7965C123.955 30.4057 123.841 30.0963 123.613 29.8683C123.401 29.624 123.141 29.4367 122.831 29.3065C122.522 29.1599 122.237 29.0541 121.976 28.9889L119.998 28.4271C118.809 28.0851 117.938 27.5966 117.384 26.9615C116.847 26.3264 116.578 25.5855 116.578 24.7387C116.578 23.957 116.773 23.2812 117.164 22.7112C117.571 22.125 118.117 21.669 118.801 21.3433C119.501 21.0176 120.283 20.8548 121.146 20.8548C122.302 20.8548 123.336 21.1479 124.248 21.7342C125.176 22.3204 125.836 23.1428 126.226 24.2013L124.37 25.0562C124.077 24.3723 123.637 23.8349 123.051 23.444C122.465 23.0369 121.805 22.8334 121.072 22.8334C120.405 22.8334 119.875 23.0043 119.485 23.3463C119.094 23.672 118.898 24.0873 118.898 24.5921C118.898 24.9666 118.996 25.276 119.192 25.5203C119.387 25.7483 119.623 25.9274 119.9 26.0577C120.177 26.1717 120.445 26.2694 120.706 26.3508L122.856 26.9859C123.93 27.2953 124.761 27.7757 125.347 28.4271C125.95 29.0785 126.251 29.8601 126.251 30.7721C126.251 31.5049 126.047 32.1644 125.64 32.7506C125.233 33.3369 124.671 33.7929 123.955 34.1186C123.238 34.4442 122.408 34.6071 121.463 34.6071ZM129.493 34.314V16.116H131.692L138.507 25.8134H137.383L144.149 16.116H146.348V34.314H143.93V19.1449L144.785 19.4136L138.018 28.9401H137.823L131.13 19.4136L131.887 19.1449V34.314H129.493ZM153.98 34.6071C153.117 34.6071 152.352 34.4524 151.684 34.143C151.033 33.8173 150.52 33.3776 150.145 32.8239C149.771 32.254 149.584 31.6026 149.584 30.8698C149.584 30.1695 149.73 29.5426 150.023 28.9889C150.333 28.419 150.805 27.9386 151.44 27.5477C152.091 27.1569 152.906 26.8801 153.883 26.7172L158.768 25.9111V27.8164L154.396 28.5492C153.549 28.6958 152.93 28.9645 152.539 29.3553C152.165 29.7462 151.977 30.2265 151.977 30.7965C151.977 31.3339 152.189 31.7817 152.613 32.14C153.052 32.4982 153.598 32.6774 154.249 32.6774C155.08 32.6774 155.796 32.5064 156.399 32.1644C157.018 31.8061 157.498 31.3258 157.84 30.7232C158.198 30.1207 158.377 29.453 158.377 28.7202V25.3738C158.377 24.6572 158.109 24.0791 157.571 23.6394C157.05 23.1835 156.358 22.9555 155.495 22.9555C154.746 22.9555 154.078 23.1509 153.492 23.5417C152.922 23.9163 152.499 24.4211 152.222 25.0562L150.243 24.0303C150.487 23.4277 150.878 22.8904 151.416 22.4181C151.953 21.9296 152.58 21.5469 153.297 21.27C154.013 20.9932 154.762 20.8548 155.544 20.8548C156.553 20.8548 157.441 21.0502 158.206 21.441C158.972 21.8156 159.566 22.3448 159.989 23.0288C160.429 23.6964 160.649 24.4781 160.649 25.3738V34.314H158.426V31.8224L158.841 31.969C158.565 32.4901 158.19 32.9461 157.718 33.3369C157.246 33.7277 156.692 34.0371 156.057 34.2651C155.422 34.4931 154.73 34.6071 153.98 34.6071ZM169.282 34.4605C167.996 34.4605 167.002 34.0941 166.302 33.3613C165.618 32.6285 165.276 31.5944 165.276 30.2591V23.3219H162.882V21.1479H163.371C163.957 21.1479 164.421 20.9688 164.763 20.6105C165.105 20.2523 165.276 19.78 165.276 19.1938V18.119H167.548V21.1479H170.503V23.3219H167.548V30.1858C167.548 30.6255 167.613 31.0082 167.743 31.3339C167.89 31.6596 168.126 31.9201 168.452 32.1156C168.777 32.2947 169.209 32.3842 169.746 32.3842C169.86 32.3842 169.999 32.3761 170.162 32.3598C170.341 32.3435 170.503 32.3273 170.65 32.311V34.314C170.438 34.3628 170.202 34.3954 169.942 34.4117C169.681 34.4442 169.461 34.4605 169.282 34.4605ZM179.318 34.6071C178.047 34.6071 176.916 34.3058 175.922 33.7033C174.929 33.1008 174.147 32.2784 173.577 31.2362C173.007 30.1777 172.722 28.9971 172.722 27.6943C172.722 26.3752 172.999 25.2028 173.553 24.1768C174.123 23.1509 174.888 22.3448 175.849 21.7586C176.826 21.1561 177.917 20.8548 179.122 20.8548C180.099 20.8548 180.962 21.0339 181.711 21.3922C182.477 21.7342 183.12 22.2064 183.641 22.8089C184.178 23.3952 184.586 24.071 184.862 24.8364C185.156 25.5855 185.302 26.3671 185.302 27.1813C185.302 27.3605 185.286 27.564 185.253 27.792C185.237 28.0037 185.213 28.2073 185.18 28.4027H174.383V26.4485H183.861L182.786 27.3279C182.933 26.4811 182.851 25.7239 182.542 25.0562C182.232 24.3885 181.777 23.8593 181.174 23.4685C180.571 23.0776 179.888 22.8822 179.122 22.8822C178.357 22.8822 177.657 23.0776 177.021 23.4685C176.386 23.8593 175.89 24.4211 175.531 25.1539C175.189 25.8704 175.051 26.7254 175.116 27.7187C175.051 28.6795 175.198 29.5263 175.556 30.2591C175.93 30.9756 176.451 31.5375 177.119 31.9446C177.803 32.3354 178.544 32.5308 179.342 32.5308C180.221 32.5308 180.962 32.3273 181.565 31.9201C182.167 31.513 182.656 30.9919 183.03 30.3568L184.936 31.3339C184.675 31.9364 184.268 32.4901 183.714 32.9949C183.177 33.4835 182.534 33.8743 181.785 34.1674C181.052 34.4605 180.229 34.6071 179.318 34.6071Z" fill="white"/>
<path d="M190.996 34.314L197.518 16.116H200.352L206.874 34.314H204.309L202.819 30.0393H195.051L193.561 34.314H190.996ZM195.808 27.8409H202.062L198.593 17.8503H199.277L195.808 27.8409ZM208.898 34.314V21.1479H211.17V34.314H208.898ZM208.898 19.0472V16.116H211.17V19.0472H208.898Z" fill="url(#paint0_linear_914_19802)"/>
<path fill-rule="evenodd" clip-rule="evenodd" d="M39.1414 23.8785C38.7051 23.8814 38.3558 24.2381 38.334 24.6739C38.0289 30.7715 33.9114 35.2988 29.7174 37.1614C21.0003 41.0336 11.3459 35.6705 9.4426 27.1907C7.49287 18.505 13.2206 9.85613 22.8837 9.16077C23.3101 9.13009 23.6526 8.78295 23.654 8.35549L23.677 1.25796C23.6784 0.834878 23.3474 0.483657 22.9244 0.484141C17.4999 0.490357 10.925 3.2627 7.51676 6.98546C6.89709 7.6624 6.48397 7.80556 5.90724 8.57181C1.50952 14.4154 -0.761261 20.2911 0.753503 28.306C1.49657 32.2374 3.59897 36.6672 6.08381 39.1745L10.8006 44.0474C12.4187 45.6744 21.2216 54.6884 23.3309 56.4865C23.5516 56.6746 23.8448 56.6728 24.0654 56.4846C26.3715 54.5171 36.5709 44.0048 37.8195 42.7644C42.183 38.4302 46.5721 33.8782 47.0047 24.6401C47.0255 24.195 46.6643 23.8282 46.2187 23.8312L39.1414 23.8785Z" fill="url(#paint1_linear_914_19802)"/>
<path d="M18.0083 18.6316H15.6346C15.4598 18.6316 15.3181 18.7733 15.3181 18.9481V28.1264C15.3181 28.3012 15.4598 28.4429 15.6346 28.4429H18.0083C18.1831 28.4429 18.3248 28.3012 18.3248 28.1264V18.9481C18.3248 18.7733 18.1831 18.6316 18.0083 18.6316Z" fill="white"/>
<path d="M26.4604 23.3262L30.939 18.8476C31.0626 18.724 31.263 18.724 31.3866 18.8476L32.616 20.077C32.7396 20.2006 32.7396 20.401 32.616 20.5246L29.8144 23.3262C29.6908 23.4498 29.6908 23.6502 29.8144 23.7738L32.616 26.5754C32.7396 26.699 32.7396 26.8994 32.616 27.023L31.3866 28.2524C31.263 28.376 31.0626 28.376 30.939 28.2524L26.4604 23.7738C26.3368 23.6502 26.3368 23.4498 26.4604 23.3262Z" fill="white"/>
<path fill-rule="evenodd" clip-rule="evenodd" d="M29.3157 8.28576C29.3139 8.72102 29.664 9.07596 30.0993 9.08014L37.5387 9.15165C37.9715 9.15581 38.3206 9.50695 38.3223 9.93977L38.351 17.2975C38.3527 17.7327 38.7055 18.0848 39.1407 18.0856L46.2474 18.099C46.6845 18.0998 47.0395 17.746 47.0401 17.3088L47.0618 1.29778C47.0624 0.861723 46.7101 0.507383 46.274 0.505487L30.1387 0.435326C29.7017 0.433426 29.3458 0.786285 29.3441 1.22337L29.3157 8.28576Z" fill="url(#paint2_linear_914_19802)"/>
<defs>
<linearGradient id="paint0_linear_914_19802" x1="187.92" y1="24.8233" x2="187.464" y2="33.4519" gradientUnits="userSpaceOnUse">
<stop offset="0.0216666" stop-color="#78AAC5"/>
<stop offset="0.318199" stop-color="#F3808E"/>
<stop offset="0.693895" stop-color="#FCB236"/>
<stop offset="1" stop-color="#F7EEA6"/>
</linearGradient>
<linearGradient id="paint1_linear_914_19802" x1="0.284669" y1="9.33022" x2="28.5259" y2="56.8613" gradientUnits="userSpaceOnUse">
<stop offset="0.0216666" stop-color="#78AAC5"/>
<stop offset="0.318199" stop-color="#F3808E"/>
<stop offset="0.693895" stop-color="#FCB236"/>
<stop offset="1" stop-color="#F7EEA6"/>
</linearGradient>
<linearGradient id="paint2_linear_914_19802" x1="29.3125" y1="3.20877" x2="37.3013" y2="19.4725" gradientUnits="userSpaceOnUse">
<stop offset="0.0216666" stop-color="#78AAC5"/>
<stop offset="0.318199" stop-color="#F3808E"/>
<stop offset="0.693895" stop-color="#FCB236"/>
<stop offset="1" stop-color="#F7EEA6"/>
</linearGradient>
</defs>
</svg>
